<?xml version="1.0" standalone="no"?>
<!DOCTYPE svg PUBLIC "-//W3C//DTD SVG 20010904//EN"
 "http://www.w3.org/TR/2001/REC-SVG-20010904/DTD/svg10.dtd">
<svg version="1.0" xmlns="http://www.w3.org/2000/svg"
 width="1280.000000pt" height="1280.000000pt" viewBox="0 0 1280.000000 1280.000000"
 preserveAspectRatio="xMidYMid meet">
<metadata>
Created by potrace 1.14, written by Peter Selinger 2001-2017
</metadata>
<g transform="translate(0.000000,1280.000000) scale(0.100000,-0.100000)"
fill="#000000" stroke="none">
<path d="M4138 9225 c-2 -2 -15 -6 -28 -9 -39 -7 -94 -28 -101 -38 -3 -5 -12
-10 -20 -11 -23 -4 -164 -104 -244 -173 -101 -89 -320 -311 -435 -443 -30 -35
-60 -69 -65 -75 -6 -6 -30 -36 -55 -66 -24 -30 -50 -62 -57 -70 -7 -8 -36 -44
-63 -80 -28 -36 -59 -75 -69 -87 -11 -13 -17 -23 -13 -23 3 0 -3 -9 -14 -19
-19 -19 -64 -81 -186 -251 -114 -160 -410 -612 -451 -690 -10 -19 -25 -40 -33
-46 -8 -6 -14 -14 -14 -18 0 -4 -16 -35 -36 -69 -132 -222 -163 -277 -156
-277 4 0 2 -4 -4 -8 -13 -9 -75 -117 -172 -302 -101 -192 -182 -355 -182 -367
0 -6 -3 -13 -8 -15 -4 -1 -26 -43 -49 -93 -23 -49 -59 -128 -81 -175 -22 -47
-77 -173 -121 -280 -45 -107 -86 -203 -91 -212 -6 -10 -10 -27 -10 -38 0 -11
-5 -20 -12 -20 -6 0 -9 -3 -5 -6 3 -3 -3 -29 -15 -58 -21 -53 -97 -278 -103
-305 -2 -9 -13 -50 -25 -91 -12 -41 -25 -95 -30 -120 -5 -25 -12 -56 -14 -69
-5 -21 -12 -69 -21 -146 -5 -36 -6 -191 -2 -222 2 -13 6 -26 10 -29 4 -4 7
-13 7 -21 0 -19 41 -63 70 -76 14 -6 40 -10 59 -9 68 3 207 86 311 185 15 15
33 27 39 27 6 0 11 7 11 15 0 8 4 15 9 15 14 0 291 284 472 484 24 27 56 62
71 79 16 16 49 54 75 84 27 30 64 71 83 92 19 20 60 66 90 101 30 35 66 76 80
91 14 15 43 49 65 75 22 27 60 71 85 99 25 28 68 77 95 109 28 32 59 68 70 80
11 12 45 51 75 86 30 35 64 74 75 86 62 69 122 141 140 165 11 16 26 29 33 29
6 0 12 4 12 8 0 5 8 18 18 29 9 12 35 42 57 68 22 26 50 59 62 74 13 14 23 33
23 41 0 33 -13 60 -31 65 -24 8 -81 -4 -74 -15 3 -5 -4 -11 -15 -15 -11 -3
-20 -9 -20 -13 0 -4 -19 -28 -43 -52 -45 -48 -278 -306 -318 -354 -24 -28 -34
-39 -99 -112 -19 -21 -75 -84 -125 -139 -49 -55 -94 -105 -100 -111 -5 -6 -24
-28 -42 -50 -17 -21 -48 -57 -68 -79 -35 -37 -103 -114 -142 -161 -10 -12 -49
-55 -86 -96 -37 -42 -77 -87 -88 -99 -26 -30 -153 -168 -239 -259 -278 -294
-437 -441 -519 -482 l-44 -21 -18 22 c-29 36 -18 155 32 347 16 62 36 130 44
153 8 23 11 41 8 41 -4 0 -2 5 5 12 7 7 12 20 12 29 0 10 5 30 12 46 6 15 11
31 10 36 -1 4 2 7 6 7 4 0 8 9 9 20 4 44 204 555 292 742 17 37 31 69 31 72 0
4 52 118 132 286 54 114 137 279 217 430 28 52 69 131 92 175 23 44 45 82 48
85 4 3 19 28 33 55 37 72 62 117 71 129 4 6 49 81 100 166 51 85 120 196 153
245 32 50 61 95 63 100 2 6 41 64 86 130 183 268 290 418 318 447 9 10 17 20
17 23 0 7 153 200 207 261 10 12 36 43 58 69 83 99 123 143 240 263 153 159
226 229 295 284 114 92 226 155 270 154 23 -1 25 -4 23 -49 -2 -54 -37 -167
-83 -277 -40 -93 -205 -429 -260 -530 -23 -41 -61 -111 -84 -155 -24 -44 -55
-100 -69 -125 -15 -25 -56 -97 -93 -160 -36 -63 -86 -149 -111 -190 -25 -41
-59 -100 -76 -130 -16 -30 -35 -58 -41 -62 -6 -4 -7 -8 -2 -8 5 0 2 -8 -6 -17
-9 -10 -17 -22 -19 -28 -2 -5 -33 -59 -69 -118 -142 -236 -161 -288 -117 -317
29 -19 37 -19 67 -2 24 13 50 47 75 97 17 35 69 120 76 125 3 3 18 28 34 55
15 28 43 73 61 101 19 28 34 54 34 57 0 3 13 25 29 49 15 24 39 63 53 88 14
25 40 70 58 100 37 62 158 277 203 360 16 30 38 69 47 85 10 17 37 66 61 110
23 44 70 133 104 198 35 64 60 117 58 117 -3 0 2 11 11 25 9 13 16 31 16 40 0
8 5 15 10 15 6 0 10 9 10 19 0 11 5 21 11 23 5 2 11 10 13 18 1 8 15 42 30 75
71 157 108 294 107 401 -1 103 -34 139 -148 160 -6 1 -13 0 -15 -1z"/>
<path d="M5824 8810 c-12 -5 -59 -64 -104 -132 -46 -68 -98 -144 -116 -169
-19 -26 -34 -49 -34 -52 0 -4 -21 -36 -123 -191 -6 -10 -20 -29 -29 -41 -10
-13 -18 -27 -18 -31 0 -4 -11 -22 -25 -40 -14 -18 -25 -35 -25 -39 0 -3 -9
-18 -19 -33 -29 -40 -115 -176 -116 -182 0 -3 -36 -63 -80 -133 -44 -71 -91
-148 -105 -171 -14 -24 -50 -85 -80 -135 -78 -131 -83 -139 -120 -206 -18 -33
-43 -76 -55 -95 -12 -19 -34 -56 -48 -82 -54 -95 -81 -144 -100 -178 -11 -19
-25 -44 -31 -55 -22 -40 -41 -62 -66 -75 -14 -7 -27 -16 -30 -19 -12 -16 -286
-215 -292 -213 -5 1 -8 -2 -8 -6 0 -11 -164 -132 -179 -132 -6 0 -11 -4 -11
-10 0 -5 -7 -10 -15 -10 -12 0 -4 21 29 83 40 75 106 185 128 212 4 5 40 54
78 107 78 107 92 151 62 188 -30 37 -69 34 -136 -12 -32 -22 -56 -34 -53 -25
10 25 -29 75 -67 86 -38 10 -100 -3 -124 -26 -7 -7 -16 -13 -20 -13 -11 0
-157 -130 -147 -130 2 0 -6 -10 -18 -23 -70 -73 -179 -236 -192 -287 -1 -3 -7
-23 -13 -45 -31 -105 -1 -151 95 -147 26 1 119 62 180 119 23 21 58 53 78 71
45 42 62 38 32 -8 -63 -94 -93 -246 -56 -283 68 -67 134 -47 339 101 63 46
126 91 139 100 13 9 32 25 43 35 10 9 22 17 27 17 5 0 12 6 14 13 4 9 6 9 6
-1 1 -7 -12 -38 -28 -70 -31 -63 -68 -170 -74 -217 -8 -61 50 -117 105 -99 48
15 116 65 212 157 105 100 99 96 81 54 -43 -103 -16 -199 61 -213 16 -3 30 -7
32 -9 6 -6 126 37 143 51 9 8 19 11 22 7 4 -3 7 -1 7 5 0 6 10 14 22 18 12 3
26 10 32 15 6 5 47 36 91 69 44 32 94 72 111 87 68 63 66 63 59 0 -9 -77 26
-176 63 -177 6 0 12 -4 12 -9 0 -8 16 -15 65 -28 11 -3 37 -6 58 -7 20 0 37
-4 37 -9 0 -4 6 -5 13 0 6 4 23 9 37 10 53 4 170 33 170 42 0 4 8 7 19 8 10 1
36 9 57 19 21 9 45 18 53 20 8 1 18 9 22 16 5 7 9 10 9 6 0 -4 15 1 33 12 41
26 48 25 39 -2 -21 -59 10 -165 54 -189 13 -7 24 -15 24 -19 0 -13 126 -3 170
14 25 9 50 18 55 19 8 2 46 23 186 103 10 6 28 19 39 29 11 10 20 15 20 11 0
-4 6 -2 13 4 16 15 148 100 153 100 3 0 10 5 17 11 7 5 41 29 77 52 95 61 147
104 167 141 8 15 14 16 29 7 46 -26 46 -25 0 -95 -47 -68 -68 -126 -61 -161 2
-11 4 -28 4 -37 1 -25 48 -76 89 -95 48 -23 232 -23 232 0 0 4 4 6 9 3 8 -5
81 15 126 34 11 5 40 18 65 29 25 10 48 18 51 18 4 -1 16 6 26 16 11 9 23 14
26 10 4 -3 7 -2 7 4 0 5 7 10 14 10 10 0 12 -5 7 -16 -14 -28 -13 -115 3 -151
14 -35 53 -65 91 -71 29 -4 95 10 95 21 0 5 8 11 19 15 25 8 131 116 185 190
29 38 49 56 71 62 56 13 101 27 105 32 5 6 102 41 112 41 3 0 -17 -44 -43 -97
-59 -116 -62 -152 -19 -183 52 -37 78 -23 228 124 74 72 139 136 146 141 56
49 176 139 176 132 0 -2 -7 -28 -16 -58 -9 -30 -17 -58 -19 -64 -1 -5 -7 -23
-14 -40 -34 -83 -26 -144 25 -179 40 -27 82 -27 140 0 20 10 42 17 50 17 8 0
14 3 14 7 0 8 88 70 100 70 5 0 13 6 17 13 4 7 59 49 122 93 62 43 126 89 142
102 22 18 37 23 64 19 22 -3 35 -1 35 7 0 7 3 7 8 1 4 -5 45 -11 92 -12 47 0
177 -4 290 -8 113 -4 253 -8 312 -8 61 -1 108 -6 108 -11 0 -6 5 -5 12 2 6 6
18 8 27 4 9 -4 184 -7 388 -7 242 0 373 -4 373 -10 0 -7 3 -7 8 0 4 6 82 10
197 10 l190 0 2 -604 c1 -331 4 -609 7 -616 4 -11 42 -13 99 -6 4 1 7 278 7
616 0 338 3 615 8 616 4 1 30 2 57 4 28 1 55 3 61 4 13 1 34 45 34 71 0 11 -9
29 -19 39 -18 18 -31 19 -163 14 -268 -10 -1378 -3 -1378 8 0 4 -18 3 -40 -1
-22 -4 -40 -4 -40 0 0 9 -20 8 -36 -3 -6 -3 -14 -4 -18 0 -3 4 -57 8 -119 10
-293 8 -334 10 -344 16 -7 4 -14 3 -18 -3 -4 -6 -11 -7 -17 -4 -6 4 -56 7
-110 8 -85 1 -104 -2 -122 -17 -11 -10 -52 -40 -91 -65 -38 -26 -74 -50 -80
-55 -39 -31 -137 -97 -145 -97 -5 0 -10 -4 -10 -8 0 -5 -12 -15 -27 -23 -16
-8 -34 -20 -42 -27 -24 -23 -23 -5 4 85 32 104 42 191 26 221 -17 31 -64 53
-105 48 -46 -6 -96 -33 -186 -100 -40 -30 -76 -54 -78 -52 -1 2 18 41 43 87
26 46 48 95 51 109 5 31 -14 57 -48 65 -32 8 -71 -28 -139 -129 -26 -38 -51
-65 -61 -66 -10 0 -18 -4 -18 -10 0 -5 -6 -10 -14 -10 -7 0 -31 -8 -52 -17
-22 -9 -42 -16 -46 -15 -5 1 -8 -3 -8 -9 0 -5 -4 -7 -10 -4 -5 3 -10 1 -10 -5
0 -6 -4 -8 -10 -5 -5 3 -10 1 -10 -4 0 -6 -6 -11 -14 -11 -7 0 -26 -7 -42 -15
-15 -8 -29 -13 -31 -11 -2 1 5 27 14 57 10 30 17 65 16 79 0 14 -1 37 -2 52
-1 15 -13 41 -28 58 -23 25 -38 32 -80 37 -29 3 -61 2 -70 -2 -10 -4 -28 -9
-39 -11 -47 -6 -97 -41 -139 -99 -17 -22 -33 -42 -36 -45 -3 -3 -14 -21 -25
-40 -40 -72 -94 -128 -162 -168 -42 -24 -212 -112 -217 -112 -11 0 -26 -5 -60
-20 -30 -13 -38 -14 -107 -24 -21 -2 -42 -7 -47 -10 -5 -4 -19 5 -30 20 -16
20 -18 31 -10 50 21 58 36 77 137 182 34 36 63 73 63 81 5 74 -39 105 -103 74
-42 -20 -73 -16 -87 11 -15 27 -7 48 41 106 34 42 36 73 6 92 -26 17 -68 14
-80 -5 -4 -6 -8 -8 -8 -3 0 19 -71 -59 -100 -110 -27 -49 -138 -174 -153 -174
-4 0 -13 -4 -20 -10 -59 -48 -75 -59 -81 -53 -3 3 -6 1 -6 -5 0 -7 -6 -12 -14
-12 -8 0 -16 -3 -18 -7 -3 -8 -155 -113 -163 -113 -3 0 -43 -25 -90 -55 -90
-58 -141 -86 -151 -84 -4 0 -10 -5 -15 -13 -5 -7 -12 -13 -16 -13 -4 -1 -25
-7 -45 -14 -66 -22 -93 2 -69 61 9 22 22 57 26 68 1 3 5 17 9 33 10 32 13 33
40 8 39 -35 116 -46 166 -24 8 3 17 7 20 7 12 2 87 52 114 76 100 87 177 210
189 305 5 37 -20 94 -48 109 -11 6 -22 14 -25 17 -11 14 -108 1 -155 -20 -53
-23 -134 -73 -174 -106 -43 -35 -151 -142 -151 -149 0 -29 -124 -146 -162
-154 -5 -1 -17 -11 -28 -22 -12 -12 -25 -18 -30 -15 -4 3 -10 1 -12 -3 -5 -13
-128 -68 -194 -88 -111 -32 -233 -14 -253 39 -20 54 15 157 101 297 18 29 192
296 228 350 6 8 39 60 75 115 35 55 69 105 75 112 5 7 10 14 10 17 0 2 48 80
106 173 58 92 140 222 182 288 131 209 207 329 220 350 21 34 34 69 39 105 4
28 0 40 -21 59 -14 14 -26 20 -26 15 0 -5 -5 -2 -10 6 -6 10 -10 11 -10 3 0
-7 -6 -13 -13 -13 -27 0 -89 -70 -169 -190 -102 -155 -107 -161 -115 -180 -4
-8 -9 -17 -13 -20 -3 -3 -25 -39 -49 -80 -25 -41 -47 -77 -50 -80 -7 -6 -24
-34 -65 -110 -16 -30 -33 -56 -38 -58 -4 -2 -8 -8 -8 -12 0 -5 -25 -50 -55
-100 -31 -50 -72 -121 -92 -158 -20 -37 -47 -81 -60 -98 -13 -17 -23 -33 -23
-37 0 -6 -63 -105 -78 -123 -5 -5 -15 -20 -21 -33 -7 -12 -19 -30 -26 -39 -19
-24 -106 -139 -130 -173 -22 -32 -35 -37 -35 -14 0 8 -10 24 -22 35 -18 17
-31 20 -63 15 -35 -6 -134 -35 -175 -52 -8 -3 -19 -7 -23 -7 -4 -1 -12 -8 -17
-16 -5 -8 -10 -11 -10 -7 0 10 -87 -39 -108 -60 -7 -7 -17 -13 -20 -13 -4 0
-25 -16 -47 -35 -43 -38 -55 -42 -55 -22 0 8 -8 23 -18 35 -22 26 -33 21 -132
-67 -41 -36 -81 -70 -88 -76 -7 -5 -23 -20 -34 -32 -12 -13 -25 -23 -30 -23
-8 0 207 428 276 548 20 35 36 65 36 67 0 2 32 59 72 127 39 67 82 143 96 168
13 25 61 108 107 185 45 77 91 155 101 172 36 62 209 339 280 448 39 61 77
121 84 134 7 14 17 30 21 35 27 32 134 202 281 446 21 35 18 58 -11 82 -26 20
-27 20 -57 8z m-1848 -1966 c-5 -26 -38 -70 -65 -88 -7 -4 -32 -26 -55 -47
-22 -22 -54 -52 -71 -67 -101 -95 -32 8 108 160 67 73 90 85 83 42z m2554
-138 c0 -8 -5 -18 -10 -21 -6 -4 -8 -10 -5 -15 3 -4 -2 -10 -10 -14 -8 -3 -15
-12 -15 -20 0 -7 -28 -41 -62 -75 -62 -60 -107 -91 -134 -91 -19 0 -18 24 1
40 8 7 15 24 15 38 0 17 15 38 44 66 64 60 72 65 119 86 51 24 57 24 57 6z
m-1217 -91 c-12 -21 -140 -150 -186 -188 -21 -18 -47 -39 -57 -47 -72 -59
-162 -110 -203 -115 -27 -4 -29 -2 -24 24 6 31 37 70 112 143 52 51 146 118
164 118 6 0 11 3 11 8 0 8 74 37 145 58 22 6 41 12 43 13 2 0 -1 -6 -5 -14z
m2672 -15 c-8 -16 -16 -33 -16 -37 -1 -5 -5 -18 -10 -31 -5 -13 -9 -27 -9 -32
0 -10 -26 -20 -34 -13 -13 14 -4 40 30 90 39 57 64 72 39 23z m-159 -202 c13
-13 24 -27 24 -33 0 -5 -32 -44 -70 -85 -78 -84 -84 -76 -32 41 16 35 32 72
35 82 8 22 14 22 43 -5z"/>
<path d="M8385 7130 c-44 -33 -84 -63 -90 -68 -9 -7 -54 -34 -140 -84 -16 -10
-45 -25 -62 -34 -18 -9 -33 -20 -33 -25 0 -5 -6 -9 -14 -9 -18 0 -30 -31 -15
-40 13 -9 110 20 121 35 4 5 8 7 8 2 0 -4 13 -1 30 8 16 8 33 14 37 13 4 -1
18 4 31 11 13 7 33 14 44 16 12 3 25 10 28 16 4 6 10 10 14 10 13 -2 86 31 86
39 0 4 10 11 23 14 34 9 87 61 87 85 0 24 -42 71 -62 71 -7 -1 -49 -28 -93
-60z"/>
<path d="M6235 5819 c-79 -17 -134 -62 -167 -135 -50 -114 -6 -272 92 -324 44
-23 114 -37 145 -28 17 4 36 6 43 3 6 -2 12 0 12 5 0 6 6 10 13 10 21 1 48 27
42 42 -5 12 -13 11 -50 -7 -52 -27 -128 -26 -184 3 -51 26 -97 105 -100 172
-2 55 16 130 31 130 5 0 7 4 4 9 -5 8 25 37 69 69 35 24 140 24 184 0 26 -15
36 -16 45 -7 8 8 8 13 -2 16 -7 3 -18 10 -25 16 -6 7 -21 14 -32 15 -11 2 -23
9 -27 15 -5 8 -8 7 -8 -3 0 -9 -3 -11 -8 -5 -10 13 -29 14 -77 4z"/>
<path d="M8720 5813 c-28 -7 -58 -20 -66 -28 -9 -8 -19 -15 -24 -15 -13 0 -67
-93 -75 -129 -35 -165 61 -302 213 -307 88 -3 159 25 147 58 -5 12 -13 11 -50
-7 -71 -37 -172 -21 -224 35 -42 45 -55 81 -55 155 -1 132 79 216 199 209 63
-3 79 -7 99 -23 15 -13 36 -8 36 9 0 8 -75 51 -88 49 -4 -1 -9 0 -12 1 -18 7
-55 5 -100 -7z"/>
<path d="M9383 5822 c-9 -5 -12 -58 -13 -172 -2 -306 -1 -310 15 -310 17 0 16
-16 16 289 -1 107 -2 195 -4 197 -1 2 -8 0 -14 -4z"/>
<path d="M9774 5818 c-6 -7 -10 -57 -9 -110 1 -94 -6 -121 -20 -78 -3 11 -15
20 -26 20 -10 0 -19 5 -19 10 0 6 -9 10 -20 10 -11 0 -20 5 -20 11 0 5 -5 7
-12 3 -11 -7 -51 -15 -85 -17 -7 0 -13 -4 -13 -8 0 -4 -9 -10 -19 -14 -10 -3
-29 -29 -41 -57 -36 -84 -14 -182 50 -229 27 -21 120 -42 120 -28 0 5 9 9 19
9 11 0 33 14 49 30 37 36 42 37 36 6 -4 -24 11 -44 23 -32 8 7 10 452 3 472
-5 13 -8 14 -16 2z m-35 -223 c28 -59 31 -84 18 -135 -9 -35 -36 -68 -73 -87
-25 -14 -94 -9 -121 7 -55 35 -75 131 -41 199 20 42 69 77 92 68 7 -3 18 -2
25 3 17 10 87 -29 100 -55z"/>
<path d="M10599 5818 c-14 -12 -59 -83 -59 -94 0 -2 6 -4 13 -4 6 0 25 20 40
45 30 48 33 75 6 53z"/>
<path d="M7282 5788 c2 -15 10 -23 23 -23 13 0 21 8 23 23 3 18 -1 22 -23 22
-22 0 -26 -4 -23 -22z"/>
<path d="M7085 5761 c-3 -10 -5 -23 -4 -27 1 -5 1 -21 0 -36 -1 -23 -6 -28
-26 -28 -16 0 -25 -6 -25 -15 0 -11 7 -14 25 -11 l24 5 0 -123 c0 -68 4 -131
8 -142 21 -58 107 -73 144 -25 20 25 22 70 4 74 -5 1 -11 -10 -13 -26 -2 -15
-12 -32 -22 -37 -25 -14 -68 -3 -80 20 -15 29 -13 250 3 251 6 1 30 2 51 3 23
1 41 7 44 14 3 10 -4 13 -24 12 -82 -6 -84 -4 -84 49 0 52 -14 76 -25 42z"/>
<path d="M7515 5666 c-22 -12 -45 -32 -52 -46 -12 -25 -13 -24 -13 13 0 20 -4
37 -9 37 -21 0 -22 -5 -22 -212 0 -100 3 -118 16 -118 9 0 15 9 15 23 3 146 8
206 18 224 35 65 119 84 163 37 22 -24 24 -34 27 -155 3 -103 6 -129 18 -129
16 0 16 -7 15 139 -1 86 -5 120 -17 141 -17 28 -67 64 -77 54 -3 -3 -14 -1
-24 4 -13 7 -29 3 -58 -12z"/>
<path d="M10007 5683 c-4 -4 -17 -8 -28 -10 -116 -18 -169 -190 -87 -284 62
-71 194 -79 247 -16 20 25 -5 29 -43 7 -20 -11 -36 -17 -36 -14 0 4 -6 1 -14
-5 -9 -8 -16 -8 -20 -2 -4 5 -15 8 -26 6 -48 -9 -137 96 -113 134 8 12 32 15
141 14 76 -1 133 2 133 8 4 30 0 47 -24 98 -12 23 -66 55 -97 55 -8 0 -18 4
-21 8 -3 5 -9 5 -12 1z m70 -49 c7 -7 17 -14 22 -16 6 -1 17 -20 26 -40 l15
-38 -47 -1 c-104 -2 -196 1 -202 6 -9 9 31 75 46 75 7 0 13 4 13 9 0 22 106
26 127 5z"/>
<path d="M10380 5679 c0 -5 -4 -7 -10 -4 -18 11 -79 -26 -89 -53 -9 -26 -9
-26 -10 11 -1 39 -15 49 -29 20 -4 -10 -7 -76 -6 -148 2 -170 2 -165 18 -165
10 0 14 26 18 113 3 95 8 119 26 149 21 34 62 55 82 43 6 -4 10 5 10 19 0 14
-2 26 -5 26 -3 0 -5 -5 -5 -11z"/>
<path d="M10867 5663 c-21 -13 -42 -34 -47 -46 -7 -19 -9 -17 -9 16 -1 26 -5
37 -16 37 -17 0 -16 4 -17 -160 0 -167 0 -170 17 -170 12 0 15 18 15 104 0
115 6 138 45 179 36 37 97 38 131 1 29 -31 27 -16 29 -159 1 -105 4 -120 19
-123 15 -3 17 8 16 120 -2 163 -25 207 -110 212 -8 1 -19 4 -25 7 -5 4 -27 -4
-48 -18z"/>
<path d="M6575 5671 c-45 -13 -81 -44 -97 -84 -20 -49 -29 -115 -17 -123 5 -3
9 -12 9 -21 0 -27 49 -82 88 -99 106 -44 219 37 224 159 2 46 -34 120 -71 146
-17 12 -31 19 -31 15 0 -3 -6 -2 -13 4 -13 11 -58 13 -92 3z m93 -33 c7 -7 12
-9 12 -5 0 15 43 -37 56 -69 19 -46 18 -80 -6 -129 -47 -97 -185 -95 -225 3
-20 46 -19 116 1 136 8 9 12 16 8 16 -9 0 41 46 58 53 25 10 84 7 96 -5z"/>
<path d="M6903 5642 c-28 -28 -35 -32 -31 -15 6 24 -5 48 -19 40 -5 -3 -8 -77
-7 -164 2 -186 1 -180 15 -166 6 6 12 55 14 109 1 55 8 113 14 129 17 42 50
74 71 70 15 -3 52 22 39 26 -39 12 -63 5 -96 -29z"/>
<path d="M7855 5672 c-65 -14 -108 -84 -106 -176 0 -34 5 -62 11 -64 5 -2 10
-10 10 -17 0 -7 14 -27 30 -44 59 -59 168 -50 220 17 11 15 20 20 19 12 -4
-46 2 -69 16 -64 12 5 15 34 15 171 0 146 -2 164 -16 159 -9 -3 -17 -6 -19 -6
-1 0 -1 -14 1 -30 l4 -30 -36 35 c-19 19 -40 36 -47 36 -40 4 -85 5 -102 1z
m131 -53 c101 -98 43 -263 -89 -255 -71 5 -117 59 -118 139 -1 59 31 127 60
127 6 0 11 4 11 8 0 5 23 9 51 11 46 2 55 -1 85 -30z"/>
<path d="M8194 5666 c-39 -17 -48 -31 -50 -76 -2 -41 16 -65 65 -86 20 -9 51
-22 69 -30 25 -11 32 -20 32 -42 0 -39 -20 -62 -57 -68 -34 -5 -70 9 -89 34
-6 8 -16 12 -23 8 -18 -12 5 -44 47 -64 98 -47 197 59 131 142 -11 14 -29 26
-39 26 -10 0 -21 4 -24 9 -3 4 -18 11 -33 14 -40 8 -58 41 -43 78 7 16 16 26
21 23 5 -3 9 0 9 5 0 14 57 14 65 1 10 -16 43 -31 49 -21 10 16 -29 49 -64 55
-21 4 -48 0 -66 -8z"/>
<path d="M9064 5670 c-3 -3 -9 -5 -12 -5 -48 -4 -91 -62 -99 -133 -9 -88 27
-160 94 -188 65 -28 143 -9 175 44 l17 27 1 -37 c0 -27 4 -38 15 -38 12 0 15
17 16 88 2 155 0 234 -5 239 -11 12 -26 -11 -27 -40 0 -18 -3 -25 -6 -17 -10
23 -29 40 -68 56 -33 13 -90 16 -101 4z m103 -32 c36 -16 50 -34 64 -82 45
-160 -129 -266 -226 -138 -29 40 -27 138 4 178 42 53 98 68 158 42z"/>
<path d="M10510 5669 c0 -5 -4 -8 -8 -5 -16 10 -69 -32 -86 -68 -37 -79 -29
-155 21 -211 51 -56 111 -69 181 -38 37 16 82 67 90 102 18 82 -16 178 -72
207 -38 19 -126 28 -126 13z m80 -25 c0 4 14 -2 30 -14 92 -65 83 -205 -16
-258 -29 -15 -92 -8 -122 15 -77 57 -74 188 5 247 16 12 23 14 18 5 -7 -11 -6
-12 6 -3 20 17 52 22 67 11 6 -5 12 -6 12 -3z"/>
<path d="M7290 5663 c-1 -16 -1 -298 -1 -310 1 -7 8 -13 16 -13 13 0 15 22 13
162 -2 118 -6 162 -15 166 -7 2 -13 0 -13 -5z"/>
<path d="M11425 5198 c-37 -22 -48 -39 -52 -81 -4 -37 -1 -47 26 -76 26 -28
36 -32 73 -30 89 6 127 100 69 168 -23 27 -86 37 -116 19z"/>
<path d="M11415 4977 c-2 -6 -7 -23 -9 -37 -3 -14 -8 -36 -11 -50 -3 -14 -12
-56 -20 -95 -8 -38 -28 -130 -44 -204 l-29 -133 47 -21 c64 -29 160 -28 221 3
69 34 82 48 68 74 -6 11 -11 22 -10 24 1 1 2 3 1 5 0 1 -2 11 -4 22 -3 11 -20
83 -40 160 -20 77 -38 150 -40 162 -3 12 -9 33 -15 47 -5 13 -6 27 -3 30 4 3
0 7 -8 7 -39 3 -73 9 -86 13 -8 3 -16 0 -18 -7z"/>
</g>
</svg>
